<?xml version="1.0" standalone="no"?><!DOCTYPE svg PUBLIC "-//W3C//DTD SVG 1.1//EN" "http://www.w3.org/Graphics/SVG/1.1/DTD/svg11.dtd"><svg t="1620549170829" class="icon" viewBox="0 0 1024 1024" version="1.1" xmlns="http://www.w3.org/2000/svg" p-id="11505" xmlns:xlink="http://www.w3.org/1999/xlink" width="200" height="200"><defs><style type="text/css"></style></defs><path d="M867.160086 0H406.279273c-85.03902 0-154.774425 74.319673-154.774424 166.771914v375.228284c0 92.452241 69.735405 166.771914 154.774424 166.771914h272.09078l108.880621 106.954888c30.60723 30.828775 83.351873 9.049242 83.351873-36.248096v-72.530274c83.351873 0 151.383089-74.302631 151.383089-164.965474V166.754872C1021.934511 74.319673 952.250231 0 867.160086 0z" fill="#0081C1" p-id="11506"></path><path d="M617.172634 190.698724H156.257738c-85.03902 0-154.774425 74.456008-154.774425 167.061626v375.858834c0 90.782136 68.031216 165.221102 151.366047 167.044584v72.632526c0 45.399589 52.727601 67.16208 83.334832 36.316263l108.846537-107.125307h272.141905c85.021978 0 154.774425-74.438966 154.774425-167.078667v-377.648233c0-92.605618-69.735405-167.061626-154.774425-167.061626z" fill="#93C0FB" p-id="11507"></path><path d="M409.670609 457.728063H207.28115a34.117859 34.117859 0 0 1-34.015608-34.015608v-10.20809c0-18.711993 15.303615-34.015608 34.015608-34.015608h202.389459c18.711993 0 34.015608 15.303615 34.015608 34.015608v10.20809a34.117859 34.117859 0 0 1-34.015608 34.015608z m115.663292 161.59118H207.28115a34.083776 34.083776 0 0 1-34.015608-33.998566v-10.225133c0-18.711993 15.303615-34.015608 34.015608-34.015608h316.348562c18.729035 0 34.015608 15.303615 34.015608 34.015608v10.225133c1.704189 18.660867-13.616468 33.998566-32.311419 33.998566z" fill="#FFFFFF" p-id="11508"></path></svg>